<?xml version="1.0" encoding="UTF-8"?>
<!DOCTYPE svg PUBLIC "-//W3C//DTD SVG 1.1//EN" "http://www.w3.org/Graphics/SVG/1.1/DTD/svg11.dtd">
<!-- Creator: CorelDRAW 2020 (64-Bit) -->
<svg xmlns="http://www.w3.org/2000/svg" xml:space="preserve" width="209.903mm" height="104.951mm" version="1.1" style="shape-rendering:geometricPrecision; text-rendering:geometricPrecision; image-rendering:optimizeQuality; fill-rule:evenodd; clip-rule:evenodd"
viewBox="0 0 20956.77 10478.38"
 xmlns:xlink="http://www.w3.org/1999/xlink"
 xmlns:xodm="http://www.corel.com/coreldraw/odm/2003">
 <defs>
  <style type="text/css">
   <![CDATA[
    .fil1 {fill:none}
    .fil0 {fill:black;fill-rule:nonzero}
   ]]>
  </style>
 </defs>
 <g id="Layer_x0020_1">
  <metadata id="CorelCorpID_0Corel-Layer"/>
  <g id="_1332108196464">
   <path class="fil0" d="M6060.68 5815.24l410.73 0 215.62 0c30.81,0 56.14,-24.65 56.14,-54.08 0,-30.11 -25.33,-54.07 -56.14,-54.07 -86.92,0 -158.81,-69.16 -160.17,-152.66l0 -2353.47c1.37,-84.88 73.25,-153.33 160.17,-153.33 30.81,0 56.14,-24.66 56.14,-54.09 0,-30.11 -25.33,-54.07 -56.14,-54.07l-396.34 0 0 0 -230.01 0c-30.81,0 -55.44,23.96 -55.44,54.07 0,29.43 24.63,54.09 55.44,54.09 88.3,0 160.18,69.13 160.18,154.7l0.69 908.39c0,48.59 15.05,94.47 41.08,133.5l-1557.35 0 0 -1041.88c0,-85.57 71.89,-154.7 160.18,-154.7 30.8,0 55.44,-24.66 55.44,-54.09 0,-30.11 -24.64,-54.07 -55.44,-54.07l-396.37 0 -0.68 0 -229.31 0c-30.8,0 -56.14,23.96 -56.14,54.07 0,29.43 25.34,54.09 56.14,54.09 87.63,0 159.48,69.13 160.18,154l0 2350.75c-0.7,85.54 -72.55,154.7 -160.18,154.7 -30.8,0 -56.14,23.96 -56.14,54.07 0,29.43 25.34,54.08 56.14,54.08l626.36 0c30.8,0 55.44,-24.65 55.44,-54.08 0,-30.11 -24.64,-54.07 -55.44,-54.07 -88.3,0 -160.18,-69.83 -160.88,-154.7l0 -1067.21c0,-48.6 -14.37,-94.47 -41.07,-133.5l1558.04 0 0 1186.31 -0.69 0 0 14.4c0,84.87 -71.19,154.7 -160.18,154.7 -30.81,0 -55.44,23.96 -55.44,54.07 0,29.43 24.63,54.08 55.44,54.08l0 0zm2310.35 52.7c8.9,0 17.11,-0.67 26.01,-0.67 0,0 30.81,-0.7 34.23,-1.38l11.65 0 1.37 -0.68c760.52,-39.02 1354.69,-690.71 1354.69,-1487.53 0,-822.81 -640.72,-1491.61 -1427.95,-1491.61 -20.54,0 -41.75,0.68 -60.24,2.06l-20.54 0 -0.67 0.67c-757.13,43.83 -1346.53,694.14 -1346.53,1488.89 0,821.46 640.75,1490.26 1427.98,1490.26l0 0zm-1158.26 -1436.16c30.8,0 56.14,-24.64 56.14,-54.09 0,-159.48 21.22,-315.57 63.66,-464.12 149.91,-529.14 535.31,-889.23 982.32,-917.28 18.49,-1.38 37.65,-2.05 56.14,-2.05 707.13,0 1287.63,592.12 1315.02,1328.7l-157.46 0c-30.81,0 -56.12,24.63 -56.12,54.74 0,204 -34.92,400.46 -102.69,584.61 -173.19,464.82 -534.63,770.11 -942.61,795.45l-26.71 1.37c-9.59,0 -19.87,0.68 -29.43,0.68 -707.13,0 -1287.63,-591.44 -1315.02,-1328.01l156.76 0zm5105.32 1383.47c30.81,0 55.46,-23.95 55.46,-54.08 0,-30.11 -24.65,-54.07 -55.46,-54.07 -8.2,0 -16.41,-0.7 -25.31,-0.7 -119.81,-8.22 -225.92,-72.55 -285.45,-173.87l-0.7 -0.67 -6.15 -10.97 -0.7 -0.68 -577.76 -937.13 -4.09 -5.48c-41.07,-58.19 -92.42,-107.48 -150.61,-147.18 429.89,-15.73 774.21,-344.32 774.21,-745.48 0,-407.28 -356.64,-739.99 -791.32,-744.78l-1.38 -0.68 -1197.93 0c-30.81,0 -56.14,23.96 -56.14,54.07 0,29.43 25.33,54.09 56.14,54.09 88.3,0 160.17,69.13 160.17,154.7l0 2350.05c-0.7,85.54 -72.55,154.7 -160.17,154.7 -30.81,0 -56.14,23.96 -56.14,54.07 0,29.43 25.33,54.08 56.14,54.08l625.67 0c30.79,0 56.12,-24.65 56.12,-54.08 0,-30.11 -25.33,-54.07 -56.12,-54.07 -88.32,0 -160.19,-69.83 -160.19,-154.7l0 -987.81c0,-48.6 -15.05,-94.47 -41.08,-133.5l426.5 0 0.68 0 14.37 0c34.92,0 68.45,17.11 86.94,43.15l559.96 913.18c149.21,257.37 419.63,416.87 721.5,426.47 10.97,0.67 21.91,1.37 32.86,1.37l0 0zm-1074.03 -1492.3l-727.69 0 0 -1141.84c0,-48.59 -14.37,-95.14 -41.08,-133.47l744.11 0 0 0 14.39 0c265.6,0 481.92,286.12 481.92,637.29 0,347.76 -210.85,631.17 -470.98,638.02l-0.67 0zm2244.61 1545c200.56,0 392.24,-57.49 551.75,-164.98 13.69,-7.52 26.68,-16.41 37.65,-26.01 36.27,-25.33 69.81,-53.39 99.94,-82.15 188.24,-180.02 292.3,-420.3 292.3,-676.32l0 -1716.85c1.37,-84.87 72.55,-154 160.17,-154 30.81,0 56.14,-23.96 56.14,-54.09 0,-29.43 -25.33,-54.07 -56.14,-54.07l-431.94 0c-30.81,0 -56.14,24.64 -56.14,54.07 0,30.13 25.33,54.09 56.14,54.09 88.3,0 160.18,69.81 160.18,155.38l0 1715.48c0,226.59 -92.42,439.49 -262.87,602.39 -23.29,22.61 -48.6,43.82 -75.98,63.66l-9.59 6.85c-10.27,7.55 -19.84,13.69 -29.43,19.87 -122.53,78.72 -265.6,119.8 -413.46,119.8 -202.63,0 -392.26,-76 -533.96,-212.9 -143.06,-138.29 -221.12,-321.06 -221.12,-515.47l0 -1785.28 0 -0.7 0 -13.69c0,-85.57 71.89,-155.38 160.2,-155.38 30.78,0 56.12,-23.96 56.12,-54.09 0,-29.43 -25.34,-54.07 -56.12,-54.07l-625.68 0c-30.8,0 -56.14,24.64 -56.14,54.07 0,30.13 25.34,54.09 56.14,54.09 87.63,0 159.48,69.13 160.18,154.7l0 1716.16c0,523.68 440.17,949.45 981.64,949.45l0 0zm2334.31 0c16.43,0 32.18,-0.67 48.59,-1.37 11.64,0 23.28,-0.68 34.92,-2.06l23.26 -2.05 8.23 -1.37 7.52 0 2.75 -0.68c470.97,-49.97 825.56,-382.67 825.56,-774.91 0,-288.88 -192.36,-553.12 -501.78,-689.34l-805.69 -357.34c-212.22,-101.32 -344.35,-286.13 -344.35,-483.29 0,-288.18 269.72,-528.45 627.06,-557.89l30.1 -2.06c14.4,-0.7 28.76,-0.7 43.83,-0.7 14.37,0 29.43,0 42.44,0.7l30.11 2.06c347.74,28.73 617.45,261.49 627.73,540.78 0.7,15.74 8.22,30.13 20.54,39.7 9.59,8.23 22.58,12.34 34.92,12.34l5.47 0 117.73 -19.18c15.07,-2.73 28.76,-11.62 37.66,-23.96l12.31 -22.58 -4.79 -19.85c-83.51,-333.37 -429.89,-586.64 -843.35,-615.41l-32.86 -2.05c-15.73,-0.7 -31.48,-0.7 -47.91,-0.7 -16.44,0 -32.19,0 -49.3,0.7l-32.16 2.05c-483.98,33.54 -863.21,373.08 -863.21,772.84 0,274.51 179.34,531.21 469.6,670.87l814.59 360.06c227.97,99.94 369.66,290.92 369.66,498.35 0,278.6 -258.75,520.24 -598.97,562.01 -4.09,0 -35.6,3.42 -35.6,3.42l-30.8 1.38c-14.37,0.67 -29.43,0.67 -43.8,0.67 -14.37,0 -29.43,0 -42.45,-0.67l-31.48 -1.38c-362.13,-30.13 -635.27,-273.83 -635.27,-565.44 0,-13.69 0.7,-24.64 2.08,-35.6 2.05,-15.74 -3.42,-32.18 -15.07,-44.5 -10.27,-10.26 -24.64,-15.74 -44.5,-15.74 0,0 -128.7,10.95 -128.7,10.95 -15.06,1.37 -29.42,8.22 -39.02,19.86l-14.37 20.54 2.75 19.86c46.55,372.38 410.02,666.05 864.58,697.53l33.54 2.06c15.73,0.7 31.48,1.37 47.92,1.37l0 0z"/>
   <path class="fil0" d="M4211.26 7560.13l673.57 0c239.94,0 435.39,-176.27 435.39,-392.92 0,-176.62 -129.4,-326.53 -308.75,-375.47 134.52,-58.19 224.54,-179.69 224.54,-316.61 0,-190.64 -170.47,-345.34 -387.79,-352.54 -3.1,0 -5.82,-0.33 -8.22,-0.33l-0.35 0 -628.4 0c-15.42,0 -28.09,11.97 -28.09,27.04 0,14.72 12.67,27.04 28.09,27.04 44.15,0 80.08,34.57 80.08,77.35l0 1175.03c-0.33,42.77 -36.28,77.35 -80.08,77.35 -15.42,0 -28.09,11.97 -28.09,27.04 0,14.72 12.67,27.04 28.09,27.04l0 0zm679.07 -54.07l-446.34 0 0 -610.95c0,-24.29 -7.52,-47.22 -20.54,-66.74l461.37 0c150.26,0 272.46,151.97 272.46,338.85 0,184.49 -119.11,335.08 -266.96,338.85l0 0zm-445.99 -731.78l0 -531.19c0,-24.31 -7.55,-47.59 -20.89,-66.75l404.55 0 0 0 6.85 0c3.1,0 6.52,0 9.59,0.35 128.34,7.87 228.63,138.97 228.63,298.44 0,159.85 -100.29,291.27 -228.63,299.15 -3.08,0 -6.5,0 -9.92,0l-390.19 0zm1751.4 785.85c15.4,0 28.07,-12.32 28.07,-27.04 0,-15.07 -12.67,-27.04 -28.07,-27.04 -43.82,0 -79.75,-34.57 -80.1,-77l0 -432.65 413.13 -721.17 3.08 -0.68 3.08 -9.58c28.75,-48.25 93.44,-88.65 142.39,-88.65 15.42,0 27.73,-12.32 27.73,-27.04 0,-15.07 -12.31,-27.04 -27.73,-27.04l-216.32 0c-15.4,0 -27.71,11.97 -27.71,27.04 0,14.72 12.31,27.04 27.71,27.04 9.25,0 25.69,1.72 32.53,12.31 6.5,10.97 3.42,30.81 -8.22,51.35l-390.52 681.47 -390.2 -681.12c-11.99,-20.89 -15.42,-40.72 -8.57,-51.7 6.5,-10.94 22.93,-12.64 32.18,-12.64 15.4,0 28.06,-11.99 28.06,-26.71 0,-15.07 -12.66,-27.04 -28.06,-27.04l-326.88 0c-15.4,0 -28.07,11.97 -28.07,27.04 0,14.72 12.67,27.04 28.07,27.04 49.29,0 115.01,41.42 143.41,90.37l417.92 729.36 0 432.65c0,42.44 -35.95,77.35 -80.09,77.35 -15.4,0 -28.07,11.97 -28.07,27.04 0,14.72 12.67,27.04 28.07,27.04l313.18 0zm2609.12 26.36l4.12 0c11.62,0 22.24,-6.85 26.34,-17.46l52.05 -134.49 453.16 -1171.26c18.13,-47.24 74.28,-86.94 122.52,-86.94 15.42,0 27.74,-12.32 27.74,-27.04 0,-15.07 -12.32,-27.04 -27.74,-27.04l-216.29 0c-15.42,0 -27.74,11.97 -27.74,27.04 0,14.72 12.32,27.04 27.74,27.04 18.14,0 32.51,5.82 40.03,16.43 8.92,12.32 9.25,31.13 1.37,51.35l-427.14 1104.16 -427.5 -1104.16c-7.88,-20.22 -7.2,-39.03 1.7,-51.35 7.55,-10.61 21.91,-16.43 39.7,-16.43 15.42,0 28.09,-12.32 28.09,-27.04 0,-15.07 -12.67,-27.04 -28.09,-27.04l-95.82 0 0 0 -223.84 0c-15.42,0 -28.08,11.97 -28.08,27.04 0,14.72 12.66,27.04 28.08,27.04 47.9,0 104.04,39.7 122.18,86.94l137.94 355.62 -282.38 729.38 -427.5 -1104.16c-7.88,-20.54 -7.2,-39.03 1.37,-51.35 7.88,-10.61 21.91,-16.43 40.06,-16.43 15.39,0 28.06,-12.32 28.06,-27.04 0,-15.07 -12.67,-27.04 -28.06,-27.04l-96.2 0 0 0 -223.49 0c-15.42,0 -28.08,11.97 -28.08,27.04 0,14.72 12.66,27.04 28.08,27.04 47.92,0 104.04,39.7 122.18,86.94l505.19 1304.72 3.77 11.64 6.5 1.73c0.35,0.33 0.35,0.33 0.67,0.68l3.77 4.44 11.64 0c11.64,0 21.91,-6.85 26.36,-17.46l337.83 -872.78 337.47 872.11 3.75 10.94 2.07 0.7 0.68 1.38 10.26 3.42 5.47 1.7 0 0zm1592.6 -26.36c15.4,0 28.06,-12.32 28.06,-27.04 0,-15.07 -12.66,-27.04 -28.06,-27.04 -43.82,0 -79.75,-34.57 -80.1,-77l0 -432.65 413.13 -721.17 3.08 -0.68 3.08 -9.58c28.75,-48.25 93.44,-88.65 142.38,-88.65 15.42,0 27.74,-12.32 27.74,-27.04 0,-15.07 -12.32,-27.04 -27.74,-27.04l-216.31 0c-15.4,0 -27.72,11.97 -27.72,27.04 0,14.72 12.32,27.04 27.72,27.04 9.25,0 25.68,1.72 32.53,12.31 6.5,10.97 3.42,30.81 -8.22,51.35l-390.53 681.47 -390.19 -681.12c-11.99,-20.89 -15.42,-40.72 -8.57,-51.7 6.49,-10.94 22.93,-12.64 32.18,-12.64 15.39,0 28.06,-11.99 28.06,-26.71 0,-15.07 -12.67,-27.04 -28.06,-27.04l-326.88 0c-15.4,0 -28.07,11.97 -28.07,27.04 0,14.72 12.67,27.04 28.07,27.04 49.29,0 115.01,41.42 143.41,90.37l417.92 729.36 0 432.65c0,42.44 -35.95,77.35 -80.1,77.35 -15.39,0 -28.06,11.97 -28.06,27.04 0,14.72 12.67,27.04 28.06,27.04l313.19 0zm1898.56 32.18l5.12 0 14.72 -4.79 2.41 -5.82c3.77,-4.45 5.82,-10.27 5.82,-16.42l0 -1311.59c0,-42.77 35.92,-77.35 80.1,-77.35 15.39,0 28.06,-12.32 28.06,-27.04 0,-15.07 -12.67,-27.04 -28.06,-27.04l-215.97 0c-15.76,0 -28.09,11.97 -28.09,27.04 0,14.72 12.32,27.04 28.09,27.04 44.15,0 80.08,34.57 80.08,77.35l0 1075.76 -934.4 -1197.26c-5.47,-6.85 -13.69,-10.62 -22.58,-10.62l-116.03 0.35 -2.75 0.35 -109.86 0c-15.42,0 -28.08,11.97 -28.08,27.04 0,14.72 12.66,27.04 28.08,27.04 21.91,0 50.65,8.57 80.08,23.61l0 1229.78c0,42.45 -35.93,77.36 -80.08,77.36 -15.42,0 -28.08,11.97 -28.08,27.04 0,14.72 12.66,27.04 28.08,27.04l215.97 0c15.4,0 28.06,-12.32 28.06,-27.04 0,-15.07 -12.66,-27.04 -28.06,-27.04 -44.15,0 -80.1,-34.9 -80.1,-77.36l0 -1191.78c11.99,10.26 22.58,20.89 31.16,31.83l1022.7 1309.87 5.13 8.23 5.47 1.37c4.11,2.05 8.22,3.08 12.66,3.08l0.35 0zm1101.07 -32.18c15.42,0 28.09,-12.32 28.09,-27.04 0,-15.07 -12.67,-27.04 -28.09,-27.04 -43.8,0 -79.75,-34.57 -80.07,-77l0 -1252.73 271.42 0c110.9,0 222.13,87.62 248.14,195.11 2.73,12.31 14.05,20.86 27.04,20.86l3.77 0 2.73 -0.67c13.69,-3.08 22.6,-15.42 21.56,-28.76l0 -1.02 -52.69 -219.05 -1.73 -5.14 -2.05 -2.73c-1.38,-2.08 -2.75,-3.77 -4.45,-5.49l-9.59 -7.18 -525.03 0 -0.35 0 -103.69 0 -522.66 0c-6.84,0 -13.34,2.73 -18.81,7.53l-3.42 3.07 -1.02 2.08 -2.76 3.08 -52.37 219.04 -1.38 3.77 0 2.4c-1.02,13 7.88,25.34 21.24,28.41l3.75 0.67 3.1 0c13,0 24.29,-8.55 27.04,-20.86 26.01,-107.49 137.24,-195.11 248.15,-195.11l271.42 0 0 1252.38c0,42.77 -36.28,77.35 -80.43,77.35 -15.42,0 -27.74,11.97 -27.74,27.04 0,14.72 12.32,27.04 27.74,27.04l313.16 0zm1817.47 0c15.39,0 27.71,-11.97 27.71,-27.04 0,-15.07 -12.32,-27.04 -27.71,-27.04 -4.12,0 -8.23,-0.35 -12.67,-0.35 -59.89,-4.09 -112.96,-36.27 -142.72,-86.92l-0.35 -0.35 -3.07 -5.47 -0.35 -0.35 -288.88 -468.57 -2.06 -2.75c-20.54,-29.08 -46.22,-53.72 -75.3,-73.58 214.95,-7.87 387.09,-172.14 387.09,-372.72 0,-203.65 -178.31,-370.01 -395.66,-372.4l-0.68 -0.33 -598.97 0c-15.42,0 -28.08,11.97 -28.08,27.04 0,14.72 12.66,27.04 28.08,27.04 44.15,0 80.08,34.57 80.08,77.35l0 1175.03c-0.33,42.77 -36.28,77.35 -80.08,77.35 -15.42,0 -28.08,11.97 -28.08,27.04 0,14.72 12.66,27.04 28.08,27.04l312.84 0c15.4,0 28.07,-12.32 28.07,-27.04 0,-15.07 -12.67,-27.04 -28.07,-27.04 -44.17,0 -80.1,-34.9 -80.1,-77.35l0 -493.91c0,-24.28 -7.52,-47.22 -20.54,-66.73l213.25 0 0.33 0 7.19 0c17.47,0 34.24,8.55 43.48,21.57l279.98 456.57c74.6,128.7 209.79,208.46 360.73,213.25 5.47,0.35 10.96,0.68 16.44,0.68l0 0zm-537.03 -746.16l-363.84 0 0 -570.89c0,-24.31 -7.19,-47.59 -20.54,-66.75l372.05 0 0 0 7.2 0c132.79,0 240.95,143.06 240.95,318.66 0,173.87 -105.44,315.56 -235.48,318.98l-0.35 0zm1382.1 772.51c4.44,0 8.55,-0.35 12.99,-0.35 0,0 15.42,-0.33 17.11,-0.68l5.82 0 0.7 -0.35c380.25,-19.51 677.35,-345.34 677.35,-743.75 0,-411.4 -320.36,-745.81 -713.97,-745.81 -10.27,0 -20.89,0.35 -30.13,1.03l-10.27 0 -0.32 0.35c-378.57,21.9 -673.25,347.06 -673.25,744.43 0,410.73 320.36,745.13 713.98,745.13l0 0zm-579.13 -718.07c15.42,0 28.07,-12.34 28.07,-27.06 0,-79.73 10.61,-157.78 31.83,-232.06 74.95,-264.57 267.66,-444.61 491.15,-458.63 9.25,-0.7 18.84,-1.03 28.09,-1.03 353.56,0 643.81,296.05 657.51,664.33l-78.73 0c-15.42,0 -28.08,12.34 -28.08,27.39 0,102.01 -17.44,200.23 -51.33,292.3 -86.59,232.41 -267.31,385.06 -471.32,397.73l-13.34 0.68c-4.8,0 -9.92,0.35 -14.72,0.35 -353.56,0 -643.82,-295.73 -657.51,-664.01l78.37 0z"/>
  </g>
  <rect class="fil1" x="0" y="-0" width="20956.77" height="10478.39"/>
 </g>
</svg>
